<svg width="16" height="16" viewBox="0 0 16 16" fill="none" xmlns="http://www.w3.org/2000/svg">
<path fill-rule="evenodd" clip-rule="evenodd" d="M16 8C16 12.4183 12.4183 16 8 16C3.58172 16 0 12.4183 0 8C0 3.58172 3.58172 0 8 0C12.4183 0 16 3.58172 16 8ZM8 3C8.41421 3 8.75 3.33579 8.75 3.75V7.25L12.25 7.25C12.6642 7.25 13 7.58579 13 8C13 8.41421 12.6642 8.75 12.25 8.75L8.75 8.75V12.25C8.75 12.6642 8.41421 13 8 13C7.58579 13 7.25 12.6642 7.25 12.25V8.75L3.75 8.75C3.33579 8.75 3 8.41421 3 8C3 7.58578 3.33579 7.25 3.75 7.25L7.25 7.25V3.75C7.25 3.33579 7.58579 3 8 3Z" fill="white" fill-opacity="0.15"/>
</svg>
