<svg width="12" height="14" viewBox="0 0 12 14" fill="none" xmlns="http://www.w3.org/2000/svg">
<path d="M6.6665 9.00004C6.6665 8.63185 6.36803 8.33337 5.99984 8.33337C5.63165 8.33337 5.33317 8.63185 5.33317 9.00004V10.3334C5.33317 10.7016 5.63165 11 5.99984 11C6.36803 11 6.6665 10.7016 6.6665 10.3334V9.00004Z" fill="#75808A"/>
<path fill-rule="evenodd" clip-rule="evenodd" d="M1.99984 4.33337V5.66671C1.26346 5.66671 0.666504 6.26366 0.666504 7.00004V12.3334C0.666504 13.0698 1.26346 13.6667 1.99984 13.6667H9.99984C10.7362 13.6667 11.3332 13.0698 11.3332 12.3334V7.00004C11.3332 6.26366 10.7362 5.66671 9.99984 5.66671V4.33337C9.99984 2.12424 8.20898 0.333374 5.99984 0.333374C3.7907 0.333374 1.99984 2.12424 1.99984 4.33337ZM8.6665 5.66671V4.33337C8.6665 2.86062 7.4726 1.66671 5.99984 1.66671C4.52708 1.66671 3.33317 2.86061 3.33317 4.33337V5.66671H8.6665ZM1.99984 7.00004H9.99984V12.3334H1.99984V7.00004Z" fill="#75808A"/>
</svg>
