<svg width="136" height="32" viewBox="0 0 136 32" fill="none" xmlns="http://www.w3.org/2000/svg">
<g clip-path="url(#clip0_930_599)">
<circle cx="7" cy="7" r="7" fill="#26C679"/>
<circle cx="7" cy="25" r="7" fill="#D6D9DC"/>
<circle cx="25" cy="7" r="7" fill="#26C679"/>
<circle cx="25" cy="25" r="7" fill="#26C679"/>
<path d="M58.588 25.618H62.06L54.976 6.01801H51.112L44 25.618H47.5L48.872 21.67H57.216L58.588 25.618ZM49.936 18.646L53.044 9.79801L56.152 18.646H49.936Z" fill="black"/>
<path d="M74.7042 6.01801V13.606C73.6402 12.15 71.9882 11.254 69.8042 11.254C65.9962 11.254 62.8322 14.446 62.8322 18.618C62.8322 22.762 65.9962 25.982 69.8042 25.982C71.9882 25.982 73.6402 25.086 74.7042 23.602V25.618H77.7282V6.01801H74.7042ZM70.2802 23.098C67.7602 23.098 65.8562 21.222 65.8562 18.618C65.8562 16.014 67.7602 14.138 70.2802 14.138C72.8002 14.138 74.7042 16.014 74.7042 18.618C74.7042 21.222 72.8002 23.098 70.2802 23.098Z" fill="black"/>
<path d="M90.7449 11.618L86.8529 22.258L82.9329 11.618H79.6289L85.0889 25.618H88.5889L94.0489 11.618H90.7449Z" fill="black"/>
<path d="M97.797 19.906H108.941C108.997 19.514 109.053 19.066 109.053 18.646C109.053 14.614 106.197 11.254 102.025 11.254C97.629 11.254 94.633 14.474 94.633 18.618C94.633 22.818 97.629 25.982 102.249 25.982C104.993 25.982 107.093 24.834 108.381 22.93L105.889 21.474C105.217 22.454 103.957 23.21 102.277 23.21C100.037 23.21 98.273 22.09 97.797 19.906ZM97.769 17.442C98.189 15.342 99.729 13.998 101.997 13.998C103.817 13.998 105.581 15.034 106.001 17.442H97.769Z" fill="black"/>
<path d="M119.078 11.254C117.174 11.254 115.662 11.954 114.738 13.41V11.618H111.714V25.618H114.738V18.114C114.738 15.258 116.306 14.082 118.294 14.082C120.198 14.082 121.43 15.202 121.43 17.33V25.618H124.454V17.022C124.454 13.382 122.214 11.254 119.078 11.254Z" fill="black"/>
<path d="M135.522 14.53V11.618H132.05V7.69801L129.026 8.59401V11.618H126.45V14.53H129.026V21.25C129.026 24.89 130.874 26.178 135.522 25.618V22.902C133.226 23.014 132.05 23.042 132.05 21.25V14.53H135.522Z" fill="black"/>
</g>
<defs>
<clipPath id="clip0_930_599">
<rect width="135.522" height="32" fill="white"/>
</clipPath>
</defs>
</svg>
