<svg width="24" height="24" viewBox="0 0 24 24" fill="none" xmlns="http://www.w3.org/2000/svg">
<path fill-rule="evenodd" clip-rule="evenodd" d="M4 9C4 8.44772 4.44772 8 5 8H19C19.5523 8 20 8.44772 20 9C20 9.55228 19.5523 10 19 10H5C4.44772 10 4 9.55228 4 9Z" fill="#5070D9"/>
<path d="M12 9C12 10.1046 11.1046 11 10 11C8.89543 11 8 10.1046 8 9C8 7.89543 8.89543 7 10 7C11.1046 7 12 7.89543 12 9Z" fill="white"/>
<path fill-rule="evenodd" clip-rule="evenodd" d="M10 8C9.44772 8 9 8.44772 9 9C9 9.55228 9.44772 10 10 10C10.5523 10 11 9.55228 11 9C11 8.44772 10.5523 8 10 8ZM7 9C7 7.34315 8.34315 6 10 6C11.6569 6 13 7.34315 13 9C13 10.6569 11.6569 12 10 12C8.34315 12 7 10.6569 7 9Z" fill="#5070D9"/>
<path fill-rule="evenodd" clip-rule="evenodd" d="M4 16C4 15.4477 4.44772 15 5 15H19C19.5523 15 20 15.4477 20 16C20 16.5523 19.5523 17 19 17H5C4.44772 17 4 16.5523 4 16Z" fill="#5070D9"/>
<path d="M16 16C16 17.1046 15.1046 18 14 18C12.8954 18 12 17.1046 12 16C12 14.8954 12.8954 14 14 14C15.1046 14 16 14.8954 16 16Z" fill="white"/>
<path fill-rule="evenodd" clip-rule="evenodd" d="M14 15C13.4477 15 13 15.4477 13 16C13 16.5523 13.4477 17 14 17C14.5523 17 15 16.5523 15 16C15 15.4477 14.5523 15 14 15ZM11 16C11 14.3431 12.3431 13 14 13C15.6569 13 17 14.3431 17 16C17 17.6569 15.6569 19 14 19C12.3431 19 11 17.6569 11 16Z" fill="#5070D9"/>
</svg>
