<svg width="64" height="64" viewBox="0 0 64 64" fill="none" xmlns="http://www.w3.org/2000/svg">
<circle cx="32" cy="32" r="32" fill="black"/>
<path d="M18.8829 39.8206C19.1174 39.5918 19.4398 39.4584 19.7818 39.4584H50.7933C51.3599 39.4584 51.6433 40.1257 51.2427 40.5165L45.1166 46.4937C44.8821 46.7225 44.5597 46.856 44.2177 46.856H13.2063C12.6396 46.856 12.3562 46.1887 12.7568 45.7978L18.8829 39.8206Z" fill="url(#paint0_linear_35_58)"/>
<path d="M18.8812 17.5051C19.1255 17.2763 19.4479 17.1428 19.7801 17.1428H50.7915C51.3582 17.1428 51.6416 17.8101 51.241 18.201L45.1149 24.1782C44.8804 24.407 44.558 24.5404 44.216 24.5404H13.2046C12.6379 24.5404 12.3545 23.8731 12.7551 23.4823L18.8812 17.5051Z" fill="url(#paint1_linear_35_58)"/>
<path d="M45.1166 28.591C44.8821 28.3622 44.5597 28.2288 44.2177 28.2288H13.2063C12.6396 28.2288 12.3562 28.8961 12.7568 29.2869L18.8829 35.2641C19.1174 35.4929 19.4398 35.6263 19.7818 35.6263H50.7933C51.3599 35.6263 51.6433 34.959 51.2427 34.5682L45.1166 28.591Z" fill="url(#paint2_linear_35_58)"/>
<defs>
<linearGradient id="paint0_linear_35_58" x1="47.8308" y1="13.5711" x2="27.1867" y2="54.0978" gradientUnits="userSpaceOnUse">
<stop stop-color="#00FFA3"/>
<stop offset="1" stop-color="#DC1FFF"/>
</linearGradient>
<linearGradient id="paint1_linear_35_58" x1="38.4445" y1="8.7918" x2="17.8005" y2="49.3186" gradientUnits="userSpaceOnUse">
<stop stop-color="#00FFA3"/>
<stop offset="1" stop-color="#DC1FFF"/>
</linearGradient>
<linearGradient id="paint2_linear_35_58" x1="43.1086" y1="11.1659" x2="22.4646" y2="51.6926" gradientUnits="userSpaceOnUse">
<stop stop-color="#00FFA3"/>
<stop offset="1" stop-color="#DC1FFF"/>
</linearGradient>
</defs>
</svg>
