<svg width="32" height="32" viewBox="0 0 32 32" fill="none" xmlns="http://www.w3.org/2000/svg">
<path fill-rule="evenodd" clip-rule="evenodd" d="M16 32C24.8366 32 32 24.8366 32 16C32 7.16344 24.8366 0 16 0C7.16344 0 0 7.16344 0 16C0 24.8366 7.16344 32 16 32ZM23.679 12.8677C24.1582 12.3086 24.0935 11.4669 23.5344 10.9877C22.9753 10.5084 22.1336 10.5732 21.6543 11.1323L14.5433 19.4285L10.2253 15.5423C9.67794 15.0497 8.83489 15.094 8.34227 15.6414C7.84966 16.1887 7.89403 17.0318 8.44138 17.5244L14.79 23.2382L23.679 12.8677Z" fill="#24C19B"/>
</svg>
