<svg width="16" height="16" viewBox="0 0 16 16" fill="none" xmlns="http://www.w3.org/2000/svg">
<path d="M8.42252 9.93463H7.00348V9.82384C7.01201 8.28975 7.44667 7.81673 8.20093 7.34798C8.71655 7.02412 9.11286 6.61503 9.11286 6.01844C9.11286 5.3494 8.58871 4.91474 7.93672 4.91474C7.33587 4.91474 6.75633 5.29827 6.71797 6.0994H5.20093C5.24354 4.48009 6.45377 3.65338 7.94525 3.65338C9.57309 3.65338 10.6938 4.55679 10.6938 5.99713C10.6938 6.97298 10.2038 7.61219 9.41968 8.08094C8.72508 8.50707 8.43104 8.92043 8.42252 9.82384V9.93463Z" fill="white" fill-opacity="0.15"/>
<path d="M8.68672 11.6562C8.68246 12.1761 8.25206 12.5937 7.74922 12.5937C7.22934 12.5937 6.80746 12.1761 6.81172 11.6562C6.80746 11.1449 7.22934 10.7272 7.74922 10.7272C8.25206 10.7272 8.68246 11.1449 8.68672 11.6562Z" fill="white" fill-opacity="0.15"/>
<path fill-rule="evenodd" clip-rule="evenodd" d="M16 8C16 12.4183 12.4183 16 8 16C3.58172 16 0 12.4183 0 8C0 3.58172 3.58172 0 8 0C12.4183 0 16 3.58172 16 8ZM15 8C15 11.866 11.866 15 8 15C4.13401 15 1 11.866 1 8C1 4.13401 4.13401 1 8 1C11.866 1 15 4.13401 15 8Z" fill="white" fill-opacity="0.15"/>
</svg>
