<svg width="64" height="64" viewBox="0 0 64 64" fill="none" xmlns="http://www.w3.org/2000/svg">
<path d="M32 64C49.7334 64 64 49.7334 64 32C64 14.2666 49.7334 0 32 0C14.2666 0 0 14.2666 0 32C0 49.7334 14.2666 64 32 64Z" fill="#2775CA"/>
<path d="M40.8002 37.0656C40.8002 32.3991 38.0002 30.7991 32.4002 30.1325C28.4002 29.5991 27.6002 28.5325 27.6002 26.6656C27.6002 24.7988 28.9336 23.5991 31.6002 23.5991C34.0002 23.5991 35.3336 24.3991 36.0002 26.3991C36.1336 26.7991 36.5336 27.0656 36.9336 27.0656H39.0667C39.6002 27.0656 40.0002 26.6656 40.0002 26.1325V25.9991C39.4667 23.0656 37.0667 20.7991 34.0002 20.5325V17.3325C34.0002 16.7991 33.6002 16.3991 32.9336 16.2656H30.9336C30.4002 16.2656 30.0002 16.6656 29.8667 17.3325V20.3991C25.8667 20.9325 23.3336 23.5991 23.3336 26.9325C23.3336 31.3325 26.0002 33.0656 31.6002 33.7325C35.3336 34.3991 36.5336 35.1991 36.5336 37.3325C36.5336 39.466 34.6667 40.9325 32.1336 40.9325C28.6667 40.9325 27.4667 39.4656 27.0667 37.4656C26.9336 36.9325 26.5336 36.6656 26.1336 36.6656H23.8667C23.3336 36.6656 22.9336 37.0656 22.9336 37.5991V37.7325C23.4667 41.0656 25.6002 43.4657 30.0002 44.1325V47.3325C30.0002 47.8657 30.4002 48.2657 31.0667 48.3991H33.0667C33.6002 48.3991 34.0002 47.9991 34.1336 47.3325V44.1325C38.1336 43.4657 40.8002 40.6656 40.8002 37.0656Z" fill="white"/>
<path d="M25.1987 51.0691C14.7987 47.3359 9.46525 35.7359 13.3321 25.4691C15.3321 19.8691 19.7321 15.6025 25.1987 13.6025C25.7321 13.3359 25.9987 12.9359 25.9987 12.2691V10.4025C25.9987 9.86906 25.7321 9.46906 25.1987 9.33594C25.0653 9.33594 24.7987 9.33594 24.6653 9.46906C11.9987 13.4691 5.06525 26.9359 9.06525 39.6025C11.4653 47.0691 17.1987 52.8025 24.6653 55.2025C25.1987 55.4691 25.7321 55.2025 25.8653 54.6691C25.9987 54.5359 25.9987 54.4025 25.9987 54.1359V52.2691C25.9987 51.8691 25.5987 51.3359 25.1987 51.0691ZM39.3321 9.46906C38.7987 9.2025 38.2653 9.46906 38.1321 10.0025C37.9987 10.1359 37.9987 10.2691 37.9987 10.5359V12.4025C37.9987 12.9359 38.3987 13.4691 38.7987 13.7359C49.1987 17.4691 54.5321 29.0691 50.6653 39.3359C48.6653 44.9359 44.2653 49.2025 38.7987 51.2025C38.2653 51.4691 37.9987 51.8691 37.9987 52.5359V54.4025C37.9987 54.9359 38.2653 55.3359 38.7987 55.4691C38.9321 55.4691 39.1987 55.4691 39.3321 55.3359C51.9987 51.3359 58.9321 37.8691 54.9321 25.2025C52.5321 17.6025 46.6653 11.8691 39.3321 9.46906Z" fill="white"/>
</svg>
