<svg width="64" height="64" viewBox="0 0 64 64" fill="none" xmlns="http://www.w3.org/2000/svg">
<circle cx="32" cy="32" r="32" fill="black"/>
<g clip-path="url(#clip0_35_45)">
<path fill-rule="evenodd" clip-rule="evenodd" d="M16.1555 13.206L7.0387 31.6976C7.00401 31.7664 6.99302 31.8441 7.00733 31.9193C7.02164 31.9945 7.06051 32.0634 7.11825 32.1158L31.7404 54.8988C31.8103 54.9636 31.9035 54.9997 32.0004 54.9997C32.0973 54.9997 32.1905 54.9636 32.2604 54.8988L56.8826 32.1172C56.9403 32.0648 56.9792 31.996 56.9935 31.9207C57.0078 31.8455 56.9968 31.7678 56.9621 31.699L47.8453 13.2075C47.8159 13.1454 47.7686 13.0927 47.709 13.0559C47.6495 13.0191 47.5802 12.9996 47.5095 12.9998H16.4943C16.4232 12.9989 16.3534 13.0179 16.2933 13.0545C16.2332 13.0911 16.1853 13.1438 16.1555 13.206Z" fill="#50AF95"/>
<path fill-rule="evenodd" clip-rule="evenodd" d="M35.1632 33.5975C34.9865 33.6103 34.0732 33.6629 32.0359 33.6629C30.4156 33.6629 29.2651 33.616 28.8615 33.5975C22.5995 33.3315 17.9255 32.2789 17.9255 31.0186C17.9255 29.7583 22.5995 28.7072 28.8615 28.4369V32.5491C29.271 32.5776 30.4435 32.6444 32.0639 32.6444C34.0083 32.6444 34.982 32.5662 35.1573 32.5506V28.4397C41.406 28.7086 46.0697 29.7612 46.0697 31.0186C46.0697 32.276 41.4075 33.3286 35.1573 33.596L35.1632 33.5975ZM35.1632 28.0144V24.3346H43.8837V18.7231H20.141V24.3346H28.86V28.013C21.7731 28.3274 16.4436 29.6829 16.4436 31.3074C16.4436 32.9318 21.7731 34.2859 28.86 34.6017V46.3936H35.1617V34.5974C42.2324 34.2831 47.5531 32.9289 47.5531 31.3059C47.5531 29.6829 42.2368 28.3288 35.1617 28.013L35.1632 28.0144Z" fill="black"/>
</g>
<defs>
<clipPath id="clip0_35_45">
<rect width="50" height="42" fill="white" transform="translate(7 13)"/>
</clipPath>
</defs>
</svg>
