<svg width="32" height="32" viewBox="0 0 32 32" fill="none" xmlns="http://www.w3.org/2000/svg">
<path fill-rule="evenodd" clip-rule="evenodd" d="M16 30C23.732 30 30 23.732 30 16C30 8.26801 23.732 2 16 2C8.26801 2 2 8.26801 2 16C2 23.732 8.26801 30 16 30ZM16 32C24.8366 32 32 24.8366 32 16C32 7.16344 24.8366 0 16 0C7.16344 0 0 7.16344 0 16C0 24.8366 7.16344 32 16 32Z" fill="#24C19B"/>
<path d="M14.4563 25H17.5415V11.9091H14.4563V25ZM16.0075 10.0511C16.9876 10.0511 17.7887 9.30114 17.7887 8.38068C17.7887 7.4517 16.9876 6.7017 16.0075 6.7017C15.0188 6.7017 14.2177 7.4517 14.2177 8.38068C14.2177 9.30114 15.0188 10.0511 16.0075 10.0511Z" fill="#24C19B"/>
</svg>
