<svg width="24" height="24" viewBox="0 0 24 24" fill="none" xmlns="http://www.w3.org/2000/svg">
<path fill-rule="evenodd" clip-rule="evenodd" d="M12 22.5C17.799 22.5 22.5 17.799 22.5 12C22.5 6.20101 17.799 1.5 12 1.5C6.20101 1.5 1.5 6.20101 1.5 12C1.5 17.799 6.20101 22.5 12 22.5ZM12 24C18.6274 24 24 18.6274 24 12C24 5.37258 18.6274 0 12 0C5.37258 0 0 5.37258 0 12C0 18.6274 5.37258 24 12 24Z" fill="white"/>
<path d="M10.8422 18.75H13.1562V8.93182H10.8422V18.75ZM12.0056 7.53835C12.7407 7.53835 13.3415 6.97585 13.3415 6.28551C13.3415 5.58878 12.7407 5.02628 12.0056 5.02628C11.2641 5.02628 10.6633 5.58878 10.6633 6.28551C10.6633 6.97585 11.2641 7.53835 12.0056 7.53835Z" fill="white"/>
</svg>
