<svg width="40" height="40" viewBox="0 0 40 40" fill="none" xmlns="http://www.w3.org/2000/svg">
<path fill-rule="evenodd" clip-rule="evenodd" d="M20 37.5C29.665 37.5 37.5 29.665 37.5 20C37.5 10.335 29.665 2.5 20 2.5C10.335 2.5 2.5 10.335 2.5 20C2.5 29.665 10.335 37.5 20 37.5ZM20 40C31.0457 40 40 31.0457 40 20C40 8.95431 31.0457 0 20 0C8.95431 0 0 8.95431 0 20C0 31.0457 8.95431 40 20 40Z" fill="#5070D9"/>
<path d="M18.0704 31.25H21.9269V14.8864H18.0704V31.25ZM20.0093 12.5639C21.2345 12.5639 22.2359 11.6264 22.2359 10.4759C22.2359 9.31463 21.2345 8.37713 20.0093 8.37713C18.7735 8.37713 17.7721 9.31463 17.7721 10.4759C17.7721 11.6264 18.7735 12.5639 20.0093 12.5639Z" fill="#5070D9"/>
</svg>
